<svg xmlns="http://www.w3.org/2000/svg" viewBox="0 0 65.13 65.13"><defs><style>.cls-1{fill:#8c6239;stroke:#000;stroke-miterlimit:10;stroke-width:1.13px;}.cls-2{fill:#603813;}.cls-3{fill:#c69c6d;}</style></defs><title>Astroid</title><g id="Layer_2" data-name="Layer 2"><g id="Astroids"><g id="Astroid1"><path class="cls-1" d="M55.76,44.26C51.87,62.41,41.56,66.62,28,63.73,10.1,59.94,12.74,43.32,1.85,29.19-6.15,18.8,25.26,3.82,40.12.64,45.58-.52,46,11.32,60.49,17.54,71.61,22.31,56.53,40.67,55.76,44.26Z"/><path class="cls-2" d="M51.61,50c0,7.79-12.71,12.75-20.3,12.75-4.82,0,0-2.06-2.49-5.91-1.42-2.22-11.27,0-11.27-2.85,0-7.79,19-20.92,26.6-20.92,1.9,0,8.57,2.1,15.24-1.22C64.21,29.42,51.61,44.13,51.61,50Z"/><path class="cls-3" d="M45.4,18.64c-3.35.69-20.06-2.12-23.54,12.27-1.37,5.65-.27,7-1.39,1.7-1.39-6.55-8.17,4.56-9.17,2.61C7,26.87,18.8,12.94,34.09,8.95c5.5-1.44,8.23-1.54,12,2.28S51,17.48,45.4,18.64Z"/></g></g></g></svg>