<svg xmlns="http://www.w3.org/2000/svg" viewBox="0 0 196 196"><defs><style>.cls-1{fill:#8c6239;}.cls-2{fill:#42210b;}.cls-3{fill:#754c24;}.cls-4{fill:#bfbfbf;}.cls-5{fill:#7fcc66;}.cls-6{fill:#98e57f;}.cls-7{fill:#009245;}.cls-8{fill:#87e169;}.cls-9{fill:#57b639;}.cls-10{fill:#009919;}.cls-11,.cls-12,.cls-13,.cls-14,.cls-15,.cls-16,.cls-18,.cls-21,.cls-22,.cls-23,.cls-24,.cls-25,.cls-26,.cls-27,.cls-28,.cls-29,.cls-30,.cls-31,.cls-32,.cls-33,.cls-34{fill:none;}.cls-11{stroke:#009919;}.cls-11,.cls-12,.cls-13,.cls-14,.cls-15,.cls-16,.cls-21,.cls-22,.cls-23,.cls-24,.cls-25,.cls-26,.cls-27,.cls-28,.cls-29,.cls-30,.cls-31,.cls-32,.cls-33,.cls-34{stroke-linecap:square;stroke-miterlimit:10;}.cls-11,.cls-12,.cls-13,.cls-14,.cls-15,.cls-16,.cls-21,.cls-22,.cls-23,.cls-24,.cls-25,.cls-26,.cls-27,.cls-31,.cls-32,.cls-33,.cls-34{stroke-width:0.35px;}.cls-12{stroke:#0a9e23;}.cls-13{stroke:#14a32d;}.cls-14{stroke:#1ea838;}.cls-15{stroke:#28ad42;}.cls-16{stroke:#32b24c;}.cls-17{fill:#007200;}.cls-19{fill:#7fd866;}.cls-20{fill:#59d859;}.cls-21,.cls-28{stroke:#59d859;}.cls-22{stroke:#5fdb5f;}.cls-23{stroke:#6d6;}.cls-24{stroke:#6cdf6c;}.cls-25{stroke:#73e173;}.cls-26{stroke:#79e379;}.cls-27{stroke:#7fe57f;}.cls-28,.cls-29{stroke-width:1.05px;}.cls-29{stroke:#68df63;}.cls-30{stroke:#77e56e;stroke-width:0.7px;}.cls-31{stroke:#85eb79;}.cls-32{stroke:#94f283;}.cls-33{stroke:#a3f88e;}.cls-34{stroke:#b2ff99;}.cls-35{fill:#b2d88c;}.cls-36{fill:#8cb265;}.cls-37{fill:#595959;}.cls-38{fill:#e5e5e5;}.cls-39{fill:#008506;}.cls-40{fill:#005f00;}.cls-41{fill:#004c00;}.cls-42{fill:#32bf32;}.cls-43{fill:#268c26;}.cls-44{fill:#75ef75;}.cls-45{fill:#77d15e;}.cls-46{fill:#59a53f;}.cls-47{fill:#d8d8d8;}</style></defs><title>favicon</title><g id="Layer_2" data-name="Layer 2"><g id="favicon"><rect class="cls-1" width="196" height="196"/><g id="Dino1"><path id="path3" class="cls-2" d="M78.77,124.6c-16.45,0-32.74.94-49.16,2C46,127.15,62.48,130,78.89,131s33.2-.39,49.7-1.56c7.52-.53,15.13-.89,22.67-.89,2,0,9.92-.1,4.46-1.5-4-1-7.85.17-11.93.17-15.77,0-31.43-1.45-47.18-2.18-6-.28-11.87-.47-17.84-.47"/><path id="path5" class="cls-3" d="M72.95,125.26c-.8,1.31-2.2-.69-3.24-2a15.34,15.34,0,0,1,1.94,2c-1.84,1.54-3.94-.36-5.82-1.32a18.4,18.4,0,0,1,4.53,2.65H65.83a14.59,14.59,0,0,1,3.23.66c-1.29.63-2.9,1.47-4.53,1.32h9.7a7.73,7.73,0,0,1-1.29-3.31"/><path id="path7" class="cls-4" d="M120.17,112c-.69.45-1.13,1.06-2.59,0,.85,0,1.74-.08,2.59,0"/><path id="path9" class="cls-4" d="M76.18,127.25c.94.39,1.7-.37,1.29,1.32a11,11,0,0,1-1.29-1.32"/><path id="path11" class="cls-5" d="M113.7,98.78c-.36.41-1,.15-.65,1.32-.1-.7.23-.84.65-1.32"/><path id="path13" class="cls-4" d="M113.05,100.11c-.49-.41-1.11-.17-1.29-1.32.42.43.83.94,1.29,1.32"/><path id="path15" class="cls-5" d="M113.7,99.44c-.52.39-.58.77-1.29.66,1.58,0,1.43-.85,1.29-.66"/><path id="path17" class="cls-6" d="M122.76,98.78c-.26.68-.26,1.15-1.29,1.32l-1.29-1.32a21.6,21.6,0,0,1,2.59,0"/><path id="path19" class="cls-4" d="M120.17,98.78a8.69,8.69,0,0,0,0-1.32c.32,1.27,0,1.4,0,1.32"/><path id="path21" class="cls-7" d="M113.7,91.5c.13,4.24.39,5.69-1.29,9.27,2.44-.85,2.62-2.43,3.23-4.63,1-3.5,1.08-7.18,3.23-10.59-3.59.53-3.84,3.07-5.18,6"/><path id="path23" class="cls-4" d="M121.46,98.78v0"/><path id="path25" class="cls-8" d="M98.17,75c-5.23-.61-11.65,2.32-16.82,3.31a42.13,42.13,0,0,1-18.11-.66c-5.48-1.33-11-4.64-16.55-5.34-3.32-.43-14.89-1.57-16.43,1.37,10.39,0,20.3.68,29.43,6.29C64,82.58,69,83.53,72.95,86.54c2.82,2.17,9.86,2.52,11.64,5.63.62,1.09-.31,9.93-1,9.93-2.42,0-4.79,10.11-6.94,11.57-2.82,1.92-7.45,16.65.14,14.91-2.31-5.09-2.76-5,1.29-9.93,2.47-3,5.05-6.83,7.76-10.59,1.31-1.81,4.53-6.06,4.53-7.61,0-1.39,4.52-6.29,5.5-6,1.46.5,5.56.38,6.15,1.65.9,2-2.87,9.56-4.2,10.92-4.88,5,4,3,5.82,3,5,0,9.55-3.51,13.26-1.32.82.48,2.82,3,2.59,4.63h.65c0-3.42-.13-5.37-3.23-6.62-2.13-.86-12.43,1.82-13.58-.66-.34-.73,3.43-5.6,4.19-6.77,2.32-3.56,2.79-4.34.34-6.47a17.71,17.71,0,0,0,5.18-4c-.69,3.92,1.33,4.57,4.53,5.3,1.75.4,5.53.16,5.18,2.65a2.2,2.2,0,0,1-2.59,2v.66c.57-.16,3.23-.73,3.23-1s2.69-3.64,1-3.64c-1.5,0-8.09-4.47-8.09-5,0-4.33,6-4.32,7.44-8.61,1.54-4.72,7.81-7.63,12-8.27,3.1-.48,6.14-1.32,9.38-1.32,1.15,0,4.6-2.32,6.79-2.65,1.64-.25,4.62.75,5.18-.66.74-1.9-1.58-2-2.59-2.65-2.15-1.38-9.59-3.69-11-1.32-4.78-2.09-13.24,5.18-18.07,6.83C121,72.67,117.11,75,112.62,75H98.17"/><path id="path27" class="cls-9" d="M96.88,90.18c3.1-.94,15-.38,16.17-3.31.56,2.85-3.55,5.08-5.82,6,5.73,3.2-3.51,13.57-4.53,7.28-.78.65-1.43.8-1.94,2,.32-1.71,1.91-5.28.65-6.62-.84-.9-5.25-1-6.47-1.32.86-.83,2.16-2.27,1.94-4"/><path id="path29" class="cls-10" d="M30.9,73.63C29,72.57,32.64,72.3,33.79,72.3c2.73,0,5.41-.66,8.11-.66,5.74,0,10.83,2.94,16.17,4.63,11.31,3.6,20.09,1.89,31.39.23C94.64,75.75,99,75,104.32,75c2.9,0,5.84.14,8.73,0s4.29-1,7.12-2c5.66-1.93,18-10.93,23.29-8.61,1.7-2.86,12.49.63,13.58,3.31-3.82.41-7-1.32-10.67-1.32-1.55,0-5.2,3.45-7.44,4-5.16,1.21-8.34.78-12.94,4.3-2.65,2-6,3.87-7.11,7-1.32-1.46-3.91-1.2-5.82-.66-.49.14-1.62,1-2.59,1.32-1.38.44-1.48-.15-1.94,1.32-2.7-1.6-8.89,2.79-10.35,4.63.07-.42-.11-.92,0-1.32.07,3.82-5.34,12.85-9.7,11.91.55-.75,2.61-2.62,1.62-3.64-1.74-1.78-.79-5,.32-6.29-1.18-.78-1-3.14-2.59-3.31s-2.68,3.57-3.23,4.63c-.59-2.2-3.06-1.72-4.53-2-2-.37-6.32-1.84-8.08-3.64-1.51-1.54-5.88-3.24-8.11-3.81-3.94-1-7.24-3.55-11-5.12-7.62-3.21-14.2-1.9-22-2"/><path id="path31" class="cls-11" d="M96.23,75.61c10,0,19.52,1.92,28.46-3.31"/><path id="path33" class="cls-12" d="M96.88,75.61c9.83,0,19,1.83,27.81-3.31"/><path id="path35" class="cls-13" d="M96.88,75.61c10.09,0,18.54,1.43,27.81-3.31"/><path id="path37" class="cls-14" d="M96.88,75.61c9.73,0,18.45,1.79,27.17-3.31"/><path id="path39" class="cls-15" d="M96.88,75.61c9.63,0,17.87,1.75,26.52-3.31"/><path id="path41" class="cls-16" d="M97.53,75.61c9.45,0,17.37,1.66,25.87-3.31"/><path id="path43" class="cls-17" d="M102.06,85.54c.25-.54,0-.9.65-1.32a25.89,25.89,0,0,0-1.94,2,10.66,10.66,0,0,0,.65-2.65C101.28,85,101,85,100.12,86.2a14.71,14.71,0,0,1,0-2,26.23,26.23,0,0,1-1.94,4c1.66-.14,2.34-1.44,3.88-2.65"/><path id="path45" class="cls-18" d="M91.06,98.78c-.79-.16-1-1.33-1.29,0l-.65-.66c2.59-1.84,1.63-4.8,1.29-8.61a6.13,6.13,0,0,0-1.94-4.63c-1.82-1.86-3.57,2.57-3.88,4a18.6,18.6,0,0,1-2.59-2c-.39,1-.82.76-1.29,1.32-.62-2.3-10.22-5.53-13.58-7.28A87.61,87.61,0,0,0,49.71,74c-6.12-1.57-11.31-1-17.51-1"/><path id="path47" class="cls-18" d="M157,67.67c-3.62.35-6.41-1.32-9.7-1.32-2,0-5.77,2.17-7.91,3.63-1.42,1-4.25.32-6,.67-2.64.54-4.47,2.12-6.82,3.32-3.84,2-5.82,4.66-7.74,7.6a2.92,2.92,0,0,0-3.88-1c-2.23,1.14-3.39.94-5.82,1.66-3.39,1-9.38,3.4-11,6a4.93,4.93,0,0,1,0-1.32"/><path id="path49" class="cls-18" d="M157,67.67c-7.17.7-10.62-2.47-16.67,1.67-4.09,2.79-10.1.58-14.23,4.81-2.65,2.71-5.86,4.61-7.26,7.43-1.33-1.47-3.44-1.22-5.18-.33-1,.52-4.27.73-4.85,1.32-2.16,2.21-8.28,2.61-10.67,5.63a5.78,5.78,0,0,1,0-1.32"/><path id="path51" class="cls-18" d="M157,67.67c-3.35.32-6.52-1.32-9.7-1.32-2.23,0-4.7,2.71-7.44,3.64-2.55.87-5,.38-7.58,1.45a26.59,26.59,0,0,0-6.18,3.2c-3,2-5.93,4.26-7.26,6.94-2.86-2-6.92.65-9.7,1.32-3.21.78-8.74,2.46-11,5.3a5.78,5.78,0,0,1,0-1.32"/><path id="path53" class="cls-18" d="M157,67.67c-2.41.22-6.33.07-8.41-1s-5,1.59-7.12,2.65c-4.42,2.27-10.83.83-14.37,4.45-2.55,2.61-7.48,4.67-8.26,8.46-1.45-2.19-5.82-1.94-6.47.66-2.73-2.34-12.28,5.08-12.94,4-.4.58-1.13.72-1.29,2,0-.65-.06-1.34,0-2"/><path id="path55" class="cls-18" d="M157,67.67c-2.33,0-5.39.15-7.12,0a29.23,29.23,0,0,0-3.56-.66c-1.38,0-.69,1.32-1.94,1.32-1.8,0-2.13,1.45-3.56,2-2.17.81-4.14.32-6.33.77-5,1-7.21,2.62-11.14,5.85-2.26,1.86-3.47,4-5.17,4.63-.45.17-2-1-3.23-.33-2,1-2,1-3.56,1-3.18,0-11.91,3.54-13.26,6.62a4.93,4.93,0,0,1,0-1.32"/><path id="path57" class="cls-18" d="M157,67.67h-7.76c-3,0-3-.19-5.82,1.32-3.7,2-8.29,1.28-12.15,2.85-2.53,1-3.89,2.57-6.11,4.08-1,.67-3.14,3.65-4.06,3.65-1.53,0-.53,2.34-1.62,2.65s-2.21-1.28-1.94-1.32c-2.62.39-4.55,2-7.11,2-3.46,0-6.05,2.55-9.06,4-1.73.82-2.91.69-3.88,2,.67-.41.44-.75.65-1.32"/><path id="path59" class="cls-18" d="M157,67.67c-1.94,0-9.86-1.17-10.67-.33-3,3.1-9.56,4.3-14,4.3s-9.19,6.19-12.15,8.61c-1.11.91-.57,3.39-2.91,1-.83-.85-4.5,1.44-4.85,2.32-1.33-1.14-4.41-.27-5.18,0-2.95,1-5.1,3.12-7.76,4.63v-.66a6.64,6.64,0,0,1-1.94,1.32c.68-.42.44-.76.65-1.32"/><path id="path61" class="cls-18" d="M156.39,67.67c-2.7,0-5.75-.45-8.41,0-3,.5-4.12,1.54-7.12,2.65-4.8,1.78-9.71,1.57-14.23,4.63-3.65,2.48-5.23,5.19-7.76,7.94-1.25-1.83-5.16-1.63-6.47.66-5.05-3.13-9.73,5.3-14.55,5.3-.75,0,.14-.38.32-.66"/><path id="path63" class="cls-18" d="M91.06,98.78c-.64.05-1.3,0-1.94,0,1.76-1.69,1.73-6.25,1.29-9.27-.2-1.4-.54-3.58-1.94-4.3-2.7-1.38-3,2.72-3.88,4.3a5.85,5.85,0,0,0-2.59-2c1.26.73-3.13-.66-2.26-.66-2.32,0-4-1.25-6.79-2.65-5.58-2.83-11.6-5.12-17.46-7.94C48.26,72.79,40.79,73,32.85,73"/><path id="path65" class="cls-18" d="M91.06,98.78c-2.71.1-1.21-.64-1.29-1.32-.16-1.34,0-4.66,0-6.29,0-1.19.65-1.48.65-2.65,0-.33-1.29-.62-1.29-2.32,0-1.5-3.23-.38-3.23.33,0,1.27-1.13,2.33-1.29,3.64a8.68,8.68,0,0,0-1.29-2v.66c-1.4-.57-2.65-.54-3.23-2v.66c-2.22-1.19-3.79-1.49-5.82-2.65a47.67,47.67,0,0,0-9.7-4.63c-5.38-1.64-10.42-4.41-15.79-6.47C44.36,72.09,38.13,73,33.49,73"/><path id="path67" class="cls-18" d="M91.06,98.78c-.46.2-.85-.19-.65.66-.48-.11-1.33-.49-1.94-.66a8.34,8.34,0,0,0,1.29-4.3c0-2.69-.81-3.4.65-5.63-2.41-.69-.08-3.15-2.59-3.31-2.34-.15-2.35,3.14-3.23,4.63a4,4,0,0,0-2.59-2c-.29.31-4.25-.62-5.82-1.32-.41-.18-1.37-1-1.94-1.32-1.24-.67-.2-1.32-1.94-1.32a4.67,4.67,0,0,1-2.26-1c-1.94-2-5.73-2.41-8.23-3.43-2.84-1.16-5.39-3-8.27-4.18C47.3,73.09,41.43,73,34.79,73"/><path id="path69" class="cls-18" d="M91.06,98.78c-1.12.27-1.34-.09-1.94.66l-1.29-.66c3.35-2.09,1.16-14-.5-12.9s-.75,3.58-2.08,4.29c-.9.48-1.27-1.32-2.26-1.32-2.54,0-2.6-1.21-4.2-2-2.18-1.06-3.22,0-4.85-1.66-2.09-2.14-6.61-3.24-9.38-4.3C54.26,77,46,73,34.79,73"/><path id="path71" class="cls-18" d="M90.41,99.44c-.85.07-1.73,0-2.59,0v-.66c1.74-1.13,1.55-5.62,1.29-8.61-.12-1.45-.22-4.32-1.94-4S86,89.49,84.59,90.84c-.68-3.55-6.94-1.46-9.06-4.63v.66c-3.34-3.71-10.09-5.59-14.74-7.49-8.69-3.55-15.4-6.36-24.72-5.75"/><path id="path73" class="cls-18" d="M90.41,99.44c-.75.76-1.82.6-3.24,0a14.48,14.48,0,0,0,1.94-9.93c-1.29-6.21-2.66-.27-4.53,2-.19-1.62-1.2-2.19-2.59-2.65-1,1.4-11.38-4.5-13.61-5.64-10.56-5.41-20.2-9.59-32.32-9.59"/><path id="path75" class="cls-18" d="M90.41,100.11a4.86,4.86,0,0,1-3.88-.66c4.49-2.39,1.77-9,1.29-12.58-2,.72-2.13,3-2.59,4.63A10.43,10.43,0,0,0,82,88.85a12.56,12.56,0,0,0,0,1.32c-1.11-1-1.53-.92-1.94-2v.66C68.78,83.16,52.64,73.63,37.37,73.63"/><path id="path77" class="cls-17" d="M116.29,77.6c.38.29,2.06,2.24,2.59,2,1.06-.51.62-3.26,0-4,.13.86-.05,1.78,0,2.65-.59-.69-1.41-1.24-1.94-2a12.79,12.79,0,0,0,1.94,2,8.16,8.16,0,0,1-2.59-.66"/><path id="path79" class="cls-19" d="M74.24,85.54c.41.4,1,.06.65,1.32.3-1.15-.24-.93-.65-1.32"/><path id="path81" class="cls-19" d="M75.54,85.54c.26.67.42,1.3.65,2a4.44,4.44,0,0,0-.65-2"/><path id="path83" class="cls-19" d="M76.18,86.2c.38.69.43,1.42,1.29,2a2.51,2.51,0,0,0-1.29-2"/><path id="path85" class="cls-19" d="M77.48,86.87c.41.63.44,1.43,1.29,2a4.39,4.39,0,0,0-1.29-2"/><path id="path87" class="cls-19" d="M78.77,86.87a30.59,30.59,0,0,0,1.94,3.31c-.82-.78-.46-2.68-1.94-3.31"/><path id="path89" class="cls-19" d="M80.71,88.19c.07,1.34,0,2.3,1.29,2.65-.48-.62-2.09-3.42-1.29-2.65"/><path id="path91" class="cls-19" d="M81.36,88.19c.46,1.27.8,2.74,1.94,3.31-.72-1-1.39-2.68-1.94-3.31"/><path id="path93" class="cls-19" d="M82.65,88.19a13.14,13.14,0,0,0,1.94,4c-1.29-1.21-1.28-3.17-1.94-4"/><path id="path95" class="cls-19" d="M83.3,88.19a17.57,17.57,0,0,1,1.29,4,4.28,4.28,0,0,0-1.29-4"/><path id="path97" class="cls-17" d="M83.3,86.2c-.06.87,0,1.77,0,2.65h.65a16.72,16.72,0,0,0,0-3.31c.22.94-.27.36-.65.66"/><path id="path99" class="cls-17" d="M82,85.54a10.4,10.4,0,0,0,1.29,3.31A5,5,0,0,0,82,85.54"/><path id="path101" class="cls-17" d="M81.36,85.54c-.07.87,0,1.77,0,2.65H82a7.41,7.41,0,0,0-.65-2.65"/><path id="path103" class="cls-17" d="M80.06,85.54c0,1.15-.16,1.8.65,2.65a3.18,3.18,0,0,0-.65-2.65"/><path id="path105" class="cls-17" d="M78.77,85.54c.28.9-.23,1.32.65,2-.23-.7-.41-1.29-.65-2"/><path id="path107" class="cls-17" d="M77.48,85.54a10.71,10.71,0,0,1,0,2h.65c-.49-1.57-.56-2-.65-2"/><path id="path109" class="cls-17" d="M76.18,84.88c.13,1.1-.42,1.74.65,2-.83-.67-.51-1.07-.65-2"/><path id="path111" class="cls-17" d="M74.89,84.22c.26.67.42,1.3.65,2a3,3,0,0,0-.65-2"/><path id="path113" class="cls-17" d="M74.24,83.56c.13,1.1-.42,1.74.65,2-.83-.67-.51-1.07-.65-2"/><path id="path115" class="cls-20" d="M30.26,73c9.16-3.86,19.13.55,27.81,3.31a49.17,49.17,0,0,0,28.46.66c1.6,3.22,6.65,3.14,3.88-.66,1,.69,1.39,1.91,1.94,3.31.71-.9.93-.45,1.29-1.32,2,1.68,3.45,0,1.94-2,.27-.82.77.22,0-1.32.72.84.86,2.73,2.59,2.65v.66a8.16,8.16,0,0,1-1.29,0v.66c1.7.24,3.93-.09,4.53-1.32a8.35,8.35,0,0,0,1.94.66c-.25-1.89-2.12-2.11-3.88-3.31,3,.41,4.12,4,7.11,3.31L105.94,75h.65c-.2,1.9.46,4.87,2.59,5.3,2.35.47,1.94-3.17,1.94-5.3.27.7,1,4,1.62,4,2.09,0,3.34-.74,1-1.32a17.56,17.56,0,0,0,1.94-.66c-.5,2.22,1,2.57,2.59,1.32a3,3,0,0,1,0-3.31h.65c-.13.86.07,1.78,0,2.65,1.6-1.87,4.09-2.61,3.88-5.3a14.51,14.51,0,0,0,.65,1.32c1.3-1.53,4-1.65,3.23-3.31.51.29.74-.26.65.66a24,24,0,0,0,5.18-2,7.29,7.29,0,0,0-1.29-1.32c1.72,1.1,5.46,1.33,5.82-1.32,1.14,1,2.16.35,1.29-1.32.34.56.54.12.65,1.32.88-.9,1.12-.58,1.29-2,.44,3,1.84,1.47,3.88,1.32-1.92,0-2.91,1.74-.65,2a9.66,9.66,0,0,1-2.59-.66c-1.24,1-1.56,2.36-3.88,3.31-1.31.54-6.11-1.85-5.82,1.32-1.15-1.07-4.1.15-3.88,2.65-2.3-1.76-3.44-.21-3.88,2v-.66c-.9,1.56-4.78,2.56-4.53,5.3-.73-2.58-5.12-1.1-5.82.66-.93-.22-.24,0-.65-.66-1.42.27-.37.95-1.29,0-1.23,1.64-4.85,1.28-7.12,2a22.63,22.63,0,0,0-3.23.66c-1.06.66-1.58,2.2-2.59,3.31,0-.44,0-.88,0-1.32-.57,2.62-3.74,5.94-3.23,8.61.08-.42-.09-.9,0-1.32-.85.83-1.27,2.32-1.94,3.31h.65c-1.4.42-1.11.5-1.94,1.32.42-.6.47-.12.65-1.32-.92.89-1.08.36-1.29,2-.31-.92-.45-1.58-.65-2,3-.65,1.39-4.08-1.29-4,3.76,1.32,3.24,0,3.24-4a10.24,10.24,0,0,0-1.94.66c1.44-.58,2.3-5.3.32-5.3-3.75,0-5.38,1.69-6.15,5.3a5.52,5.52,0,0,1,.65-3.31,4.14,4.14,0,0,0-1.94,2c.19-2.16-1.77-2.53-2.59-1.32-.64-.4-2.1-.79-3.23-1.32-.79,1.3-2.07,0-3.23-1.32-.75,1.3-10.46-4.79-13.44-5.4-4.88-1-8.92-3.47-13.75-4.7-3.58-.92-9.62.44-12.27-1.15a4.73,4.73,0,0,1-4.53.66"/><path id="path117" class="cls-21" d="M58.07,76.94c4.7,1,8.77,2.68,13.59,3.18s9-2.09,13.57-1.85"/><path id="path119" class="cls-22" d="M58.72,77.6a47.8,47.8,0,0,0,12.72,2h6.9c2.18,0,4-1.56,6.25-1.32"/><path id="path121" class="cls-23" d="M58.72,77.6a47.8,47.8,0,0,0,12.72,2c4.33,0,8.4-1.27,12.51-1.32"/><path id="path123" class="cls-24" d="M58.72,77.6a47.8,47.8,0,0,0,12.72,2c4.08,0,8.08-1.37,11.86-1.32"/><path id="path125" class="cls-25" d="M59.37,77.6c4.15,1.06,7.79,2,12.07,2,4.08,0,8.08-1.37,11.86-1.32"/><path id="path127" class="cls-26" d="M60,77.6c8.17,3,14.49.57,22.64.66"/><path id="path129" class="cls-27" d="M60,77.6c5.61,1.35,16.9,4.83,22,.66"/><path id="path131" class="cls-28" d="M96.88,83.56c.26,2.39-.57,4.39-1.29,6.62"/><path id="path133" class="cls-29" d="M96.88,83.56c.26,2.39-.57,4.39-1.29,6.62"/><path id="path135" class="cls-30" d="M96.88,83.56c.26,2.39-.57,4.39-1.29,6.62"/><path id="path137" class="cls-31" d="M96.88,83.56a18.14,18.14,0,0,1-.65,6"/><path id="path139" class="cls-32" d="M96.88,83.56c.71,1.71-.33,3.82-.65,6"/><path id="path141" class="cls-33" d="M96.88,83.56c.71,1.48-.42,3.31-.65,5.3"/><path id="path143" class="cls-34" d="M96.88,84.22c1.11,1,.27,2.85-.65,4.63"/><path id="path145" class="cls-10" d="M139.57,67.67c-.45-.22-.85.2-.65-.66-1.58.47-3.51.84-3.88,2,1.7,1.19,4.58.78,4.53-1.32"/><path id="path147" class="cls-10" d="M103.35,82.89c-1.66,2.1-2.36-5.07,2.59-1.32a13.53,13.53,0,0,1-2.59,1.32"/><path id="path149" class="cls-10" d="M91.71,88.19c.15-1,.78-1.53.65-2.65,1.33,1.24,2,3-.65,2.65"/><path id="path151" class="cls-10" d="M93,88.19c-.72.68-1,1.35,0,2.65.8-1.11.49-1.6,0-2.65"/><path id="path153" class="cls-10" d="M92.35,92.82c-.12.52.12.85-.65.66l.65.66a6.59,6.59,0,0,1,0-1.32"/><path id="path155" class="cls-10" d="M92.35,94.81a8.24,8.24,0,0,1,0,1.32c.5-1,0-1.25,0-1.32"/><path id="path157" class="cls-10" d="M93,94.81a6.52,6.52,0,0,0,0-1.32c1.1.68.16.64,0,1.32"/><path id="path159" class="cls-10" d="M93,92.82a5,5,0,0,1-.65-2c1.65.29,1.67,1.08.65,2"/><path id="path161" class="cls-10" d="M92.35,85.54c-.13-.78-.71-.52,0-1.32a8.24,8.24,0,0,0,0,1.32"/><path id="path163" class="cls-10" d="M93.65,84.88v0"/><path id="path165" class="cls-10" d="M94.94,91.5c-.13.81.37,1.35-.65,1.32,1,.09.51-.51.65-1.32"/><path id="path167" class="cls-10" d="M99.47,84.88c-.35.17-.15,1-1.29.66v-.66a4.16,4.16,0,0,0,1.29,0"/><path id="path169" class="cls-10" d="M82.65,85.54c.42-.49.75-.62.65-1.32.37,1.29-.3.92-.65,1.32"/><path id="path171" class="cls-18" d="M149.92,65.68l1.29-.66c-1.3-1.25-3.36-2.11-3.88,0"/><path id="path173" class="cls-18" d="M149.92,65.68c.89-1.85-2-2.93-2.59-.66"/><path id="path175" class="cls-18" d="M149.92,65.68c1.1-1.59-1.64-2.34-2.59-.66"/><path id="path177" class="cls-18" d="M149.92,65.68c.74-.94-1.81-2-2.59-.66"/><path id="path179" class="cls-18" d="M149.28,65.68c1.45-1.23-1.23-1.79-1.94-.66"/><path id="path181" class="cls-18" d="M147.33,65c.72-1.14,2.07-.9,2.59.66a3.83,3.83,0,0,1-2.59-.66"/><path id="path183" class="cls-35" d="M149.92,65c-.74-.94-1.74-.76-2.59,0,1.23,1,1.9.73,2.59,0"/><path id="path185" class="cls-36" d="M148,65c.64,0,1.3,0,1.94,0v-.66c-1.28-.31-1.46.33-1.94.66"/><path id="path187" d="M149.28,64.36c.34,1-.27,1.69,1.29,1.32a10.87,10.87,0,0,0-1.29-1.32"/><path id="path189" d="M148,64.36a4.51,4.51,0,0,0,0,1.32c-1.27-1.11-.2-.86,0-1.32"/><path id="path191" class="cls-37" d="M149.92,65c-.19.48.18.87-.65.66.83.21.46-.18.65-.66"/><path id="path193" class="cls-37" d="M148,64.36v0"/><path id="path195" d="M148.63,64.36a4.47,4.47,0,0,1,0,1.32h.65c.3-1.17-.48-1-.65-1.32"/><path id="path197" class="cls-38" d="M149.28,64.36h0"/><path id="path199" class="cls-10" d="M155.74,66.34c0,.06-.23.86,1.29,1.32l-1.29-1.32"/><path id="path201" class="cls-39" d="M155.1,66.34c.76.63,1,1.22,1.94,1.32a15.35,15.35,0,0,0-1.94-1.32"/><path id="path203" class="cls-17" d="M155.1,66.34c.46.41.87.89,1.29,1.32-.39-.89-.86-.94-1.29-1.32"/><path id="path205" class="cls-40" d="M155.1,66.34c.75.75,1.11.42,1.29,1.32-.39-.89-.8-1-1.29-1.32"/><path id="path207" class="cls-41" d="M155.74,67c-.09-.54.1-.85-.65-.66.37.28,1.29.75,1.29,1,0,.74-.41-.1-.65-.33"/><path id="path209" class="cls-17" d="M147.33,63.7a6.11,6.11,0,0,0-.65,1.32c-.31-1.18.34-.91.65-1.32"/><path id="path211" class="cls-17" d="M151.22,64.36c.08.77.72.5,0,1.32.72-.82.08-.55,0-1.32"/><path id="path213" class="cls-17" d="M150.57,65.68c-.9.51-1.11,1-2.59,0,1.6,1.47,3.84.19,5.82.66a15.27,15.27,0,0,1-3.23-.66"/><path id="path215" class="cls-17" d="M155.1,66.34h0"/><path id="path217" class="cls-17" d="M145.39,63.7v0"/><path id="path219" class="cls-17" d="M143.45,63.7v0"/><path id="path221" class="cls-17" d="M141.51,64.36c.13.59,0,.93.65,1.32-1.06.09-.47-.52-.65-1.32"/><path id="path223" class="cls-17" d="M139.57,65c.15.3,1.09.66.32.66s-.1-.24-.32-.66"/><path id="path225" class="cls-42" d="M117.58,78.92a9.55,9.55,0,0,0,1.29,2c-.12-1.46-.44-2.42-1.29-2"/><path id="path227" class="cls-42" d="M117.58,77.6c.52.87,1.19.92,1.29,2h.65c-.14-1.25-.91-1.64-1.94-2"/><path id="path229" class="cls-42" d="M118.87,76.94c.35.78.87.95.65,2h.65c-.21-1.4-.45-2.58-1.29-2"/><path id="path231" class="cls-42" d="M112.41,81.57c.41-.69.11-1.38,1.29-1.32-.83.18-.64.54-1.29,1.32"/><path id="path233" class="cls-42" d="M98.17,85.54c-.43-2.64-1.9-4.71-4.53-4.63,2.54-.72,5,2.06,4.53,4.63"/><path id="path235" class="cls-42" d="M98.17,79.58c1.87,1.33,1.29,3.86,1.29,6,0-2.17.34-4.25-1.29-6"/><path id="path237" class="cls-42" d="M99.47,84.22a2.79,2.79,0,0,0,.65-2.65c.86,1.61.49,2-.65,2.65"/><path id="path239" class="cls-42" d="M96.23,80.91c-1-2.45-5.7-.77-7.76,0,1.68-.63,8.93-2.38,7.76,0"/><path id="path241" class="cls-42" d="M83.3,86.87c.25-2.84,2.08-4.8,3.23-7.28-.69,2.25-1.82,6-3.23,7.28"/><path id="path243" class="cls-42" d="M82,85.54c.63-.76,1.1-3.13,1.94-4-.7,1.42-.18,5-1.94,4"/><path id="path245" class="cls-42" d="M80.06,85.54c.63-1.78.46-3.72,1.29-5.3-.5,1.82-.24,4.48-1.29,5.3"/><path id="path247" class="cls-42" d="M81.36,85.54c0-1.79.37-3.85,1.29-4.63-.85.92-.53,2.9-1.29,4.63"/><path id="path249" class="cls-42" d="M78.77,85.54c-.27-1.42-.08-2.77.65-3.31-.68.56-.9,1.88-.65,3.31"/><path id="path251" class="cls-10" d="M78.77,85.54v0"/><path id="path253" class="cls-42" d="M77.48,85.54v0"/><path id="path255" class="cls-42" d="M76.18,84.88v0"/><path id="path257" class="cls-42" d="M74.89,84.22v0"/><path id="path259" class="cls-9" d="M116.93,86.87c1.13-1.19,3-3,4.53-4.63,3.58-3.9,6.11-9.82,11.64-10.59v.66c-.4.09-.9-.13-1.29,0,1.53.77,10.58-.24,12.29-2l-.65-.66c.66.55,1.39.93,1.94,1.32v-.66a4,4,0,0,1-1.29-.66,25.68,25.68,0,0,0,2.59.66A15.38,15.38,0,0,1,145.39,69c.95,1.12,2,1.86,2.59,0-.4-.07-.9.12-1.29,0,.36-.1,1,.08.65-.66,1,.61,8.14,1,9.7,0V69c-8.38,0-12.74,3.31-20.38,3.31-5.13,0-6.91,4.45-10.35,5.63-2,.67-2.57,4-3.88,5.3-1.83,1.88-3.63,2.3-5.5,3.64"/><path id="path261" class="cls-43" d="M83.95,88.19h0"/><path id="path263" class="cls-43" d="M83.3,88.19h0"/><path id="path265" class="cls-43" d="M82,88.19h0"/><path id="path267" class="cls-43" d="M80.71,88.19a6,6,0,0,1,0-1.32c-1,1.19-.06,1.08,0,1.32"/><path id="path269" class="cls-43" d="M79.42,87.53c-.33-.33.3-.9-.65-.66.4.68,1.31,1.34.65.66"/><path id="path271" class="cls-43" d="M78.12,86.87h0"/><path id="path273" class="cls-43" d="M76.83,86.87c-.33-.33.3-.9-.65-.66-.23,1,.32.33.65.66"/><path id="path275" class="cls-43" d="M75.54,85.54h0"/><path id="path277" class="cls-43" d="M74.24,85.54h0"/><path id="path279" class="cls-18" d="M107.88,92.82c-1.09,2.57-8.26,2-11,2"/><path id="path281" class="cls-18" d="M107.88,92.82c-1.72,2.29-7.9,2-11,2"/><path id="path283" class="cls-18" d="M107.88,92.82c-3,2.25-7.29,2-11,2"/><path id="path285" class="cls-18" d="M107.88,92.82c-3.42,1.9-7,2-11,2"/><path id="path287" class="cls-18" d="M107.23,92.82c-2.93,2.11-6.65,2-10.35,2"/><path id="path289" class="cls-18" d="M107.23,92.82c-2.45,2-7,1.5-10.35,2"/><path id="path291" class="cls-18" d="M107.23,92.82a33.72,33.72,0,0,1-10.35,1.32"/><path id="path293" class="cls-44" d="M100.76,75c-.08-.14-.53.58,1.29.66-.72.11-.78-.27-1.29-.66"/><path id="path295" class="cls-44" d="M105.94,75.61c.33.33.88-.31.65.66-.95.24-.32-.33-.65-.66"/><path id="path297" class="cls-44" d="M111.11,75.61c.33.33.88-.31.65.66-1,.24-.32-.33-.65-.66"/><path id="path299" class="cls-44" d="M122.76,73c.15.3,1.09.66.32.66s-.11-.24-.32-.66"/><path id="path301" class="cls-5" d="M113.7,86.87a6.75,6.75,0,0,1,.65-3.31c-.29,1.59-.28,1.1-1.29,2v-.66a7.46,7.46,0,0,1-.65-2,7.38,7.38,0,0,0,.65,2.65h-.65c-.05,1.2.6.93,1.29,1.32"/><path id="path303" class="cls-5" d="M118.87,84.22c-.13-.92.18-1.36-.65-2l.65,1.32c-.71,0-.7.35-1.29.66v-.66a11.75,11.75,0,0,0,0,2h.65c-.11-.78.33-.74.65-1.32"/><path id="path305" class="cls-9" d="M117.58,86.2c-1.36,2-3.27,2.79-3.88,5.3.59-1,.27-.12,1.29-.66h-.65v.66c.65-.36.65-.31,1.29-.66v.66H115a3,3,0,0,0,1.29-1.32h-.65a13.16,13.16,0,0,0,1.94-4"/><path id="path307" class="cls-45" d="M119.52,94.15c2,.14,2.9.31,3.88,2-.93-1.36-2.6-1.46-3.88-2"/><path id="path309" class="cls-45" d="M103.35,104.74h-1.94a13,13,0,0,1,1.94,0,4.81,4.81,0,0,1-3.23,1.32c.68-.27,1.85-.45,2.59-.66a3.83,3.83,0,0,1-1.94,2.65,8.29,8.29,0,0,0,2.59-3.31"/><path id="path311" class="cls-45" d="M97.53,109.37c.93.28.63.63,1.94.66v.66c-1.32.2-1.25-.37-1.94-1.32"/><path id="path313" class="cls-45" d="M104,107.39c-.28.4.26.89-.65.66v.66a10.45,10.45,0,0,1,3.88-.66,4,4,0,0,1-3.23-.66"/><path id="path315" class="cls-45" d="M115.64,107.39c-.1-.69,0-.75,0,0a1.56,1.56,0,0,0-2.59.66c.55-1,1.29-.5,2.59-.66"/><path id="path317" class="cls-45" d="M118.87,110.7a11.08,11.08,0,0,0-1.29-2.65c1.51.58,2.37,3.29,2.59,4.63h-.65c.23-1.06-.37-1.19-.65-2"/><path id="path319" class="cls-18" d="M117.58,108a5.67,5.67,0,0,1,1.29,2.65"/><path id="path321" class="cls-45" d="M87.83,103.42c-.9-.14-1.29.19-1.94-.66a4,4,0,0,0,1.94.66"/><path id="path323" class="cls-45" d="M87.83,104.74c-1.42.39-2,.89-3.23,0a2.2,2.2,0,0,0,3.23,0"/><path id="path325" class="cls-45" d="M86.53,106.06h0"/><path id="path327" class="cls-45" d="M89.77,100.77a4.39,4.39,0,0,0-3.23,0c1.2-1,2.56-1,3.23,0"/><path id="path329" class="cls-45" d="M83.95,104.74c-.92,1-1.88,2.74-3.23,4.63,1.15-1.61,1.42-4.16,3.23-4.63"/><path id="path331" class="cls-45" d="M80.06,114a7.75,7.75,0,0,1-1.94,1.32,13.85,13.85,0,0,0,1.29-.66c-.76,1.12-.4.77-1.94,1.32.72.46.17,0,.65.66,1.31-.6,1.92-1.23,1.94-2.65"/><path id="path333" class="cls-45" d="M76.18,115.33a7.09,7.09,0,0,0,0,1.32h-.65l.65-1.32"/><path id="path335" class="cls-45" d="M76.18,121.29h0"/><path id="path337" class="cls-45" d="M74.89,122.61a6.17,6.17,0,0,1-1.29,0l.65.66c-.19-.79.14-.54.65-.66"/><path id="path339" class="cls-45" d="M74.89,128.57a7.36,7.36,0,0,0-1.29-2.65h.65a3.91,3.91,0,0,1,.65,2.65"/><path id="path341" class="cls-45" d="M84.59,99.44c2.37-1.65,2.49-7.76,3.88-10.59-.59,3.29-1.57,10.63-4.53,12.58.9-.72.38-1.08.65-2"/><path id="path343" class="cls-4" d="M112.41,100.11c-.79-.14-1.38.39-1.29-.66,0,1,.5.53,1.29.66"/><path id="path345" class="cls-4" d="M113.05,100.77c-.91.31-1,1.25-1.94,0,.89.9.85.12,1.94,0"/><path id="path347" class="cls-46" d="M157,67.67H146.69c3.39,0,7.14,1,10.35.66h-.65c.66.17.67-.09.65-.66"/><path id="path349" class="cls-18" d="M157,67.67c-.91,1.16-7.46,0-10.35,0"/><path id="path351" class="cls-18" d="M147.33,67.67H148"/><path id="path353" class="cls-18" d="M145.39,63.7v.66"/><path id="path355" class="cls-18" d="M147.33,63.7l-.65.66"/><path id="path357" class="cls-18" d="M151.22,64.36c.56.41.88.76,0,.66"/><path id="path359" class="cls-18" d="M143.45,64.36"/><path id="path361" class="cls-18" d="M141.51,64.36v1.32"/><path id="path363" class="cls-18" d="M139.57,65v.66"/><path id="path365" class="cls-18" d="M118.87,80.91a19.75,19.75,0,0,1-1.94-3.31"/><path id="path367" class="cls-18" d="M118.87,80.25a3.72,3.72,0,0,0-1.94-4"/><path id="path369" class="cls-18" d="M119.52,79.58a6.82,6.82,0,0,0-.65-3.31"/><path id="path371" class="cls-18" d="M117.58,85.54c.94-.13,1.37-.93,1.29-2"/><path id="path373" class="cls-18" d="M117.58,84.88c.56-.41.88-.77,0-.66"/><path id="path375" class="cls-18" d="M113.05,86.87a1.25,1.25,0,0,0,.65-1.32"/><path id="path377" class="cls-18" d="M113.05,85.54a3.23,3.23,0,0,1-.65-2"/><path id="path379" class="cls-18" d="M112.41,85.54l.65.66"/><path id="path381" class="cls-18" d="M115.64,90.18c-.13.63-.54,1-1.29,1.32"/><path id="path383" class="cls-18" d="M115.64,90.18a1.2,1.2,0,0,0-1.29.66"/><path id="path385" class="cls-18" d="M115.64,90.18v.66"/><path id="path387" class="cls-18" d="M98.82,80.91a3.87,3.87,0,0,1,.65,3.31"/><path id="path389" class="cls-18" d="M100.12,82.23c.09,2.05-.23,4.59-1.94,5.3"/><path id="path391" class="cls-18" d="M101.41,84.22a3.83,3.83,0,0,1-2.59,3.31"/><path id="path393" class="cls-18" d="M102.06,84.88a2.3,2.3,0,0,1-1.94,2"/><path id="path395" class="cls-18" d="M94.94,80.91c2.49.38,3.72,3.27,3.23,6"/><path id="path397" class="cls-18" d="M96.23,80.91c-2.18-2.12-4.64-.85-7.12,0"/><path id="path399" class="cls-18" d="M98.17,75c-5.23-.61-11.65,2.32-16.82,3.31a42.13,42.13,0,0,1-18.11-.66c-5.48-1.33-11-4.64-16.55-5.34-3.32-.43-14.89-1.57-16.43,1.37,10.39,0,20.3.68,29.43,6.29C64,82.58,69,83.53,72.95,86.54c2.82,2.17,9.86,2.52,11.64,5.63.62,1.09-.31,9.93-1,9.93-2.42,0-4.79,10.11-6.94,11.57-2.82,1.92-7.45,16.65.14,14.91-2.31-5.09-2.76-5,1.29-9.93,2.47-3,5.05-6.83,7.76-10.59,1.31-1.81,4.53-6.06,4.53-7.61,0-1.39,4.52-6.29,5.5-6,1.46.5,5.56.38,6.15,1.65.9,2-2.87,9.56-4.2,10.92-4.88,5,4,3,5.82,3,5,0,9.55-3.51,13.26-1.32.82.48,2.82,3,2.59,4.63h.65c0-3.42-.13-5.37-3.23-6.62-2.13-.86-12.43,1.82-13.58-.66-.34-.73,3.43-5.6,4.19-6.77,2.32-3.56,2.79-4.34.34-6.47a17.71,17.71,0,0,0,5.18-4c-.69,3.92,1.33,4.57,4.53,5.3,1.75.4,5.53.16,5.18,2.65a2.2,2.2,0,0,1-2.59,2v.66c.57-.16,3.23-.73,3.23-1s2.69-3.64,1-3.64c-1.5,0-8.09-4.47-8.09-5,0-4.33,6-4.32,7.44-8.61,1.54-4.72,7.81-7.63,12-8.27,3.1-.48,6.14-1.32,9.38-1.32,1.15,0,4.6-2.32,6.79-2.65,1.64-.25,4.62.75,5.18-.66.74-1.9-1.58-2-2.59-2.65-2.15-1.38-9.59-3.69-11-1.32-4.78-2.09-13.24,5.18-18.07,6.83C121,72.67,117.11,75,112.62,75H98.17"/><path id="path401" class="cls-4" d="M74.24,127.91c.65.44,1.35.09,1.29,1.32-1.2.06-.86-.66-1.29-1.32"/><path id="path403" class="cls-4" d="M76.18,127.91c.94.39,1.7-.37,1.29,1.32a11.18,11.18,0,0,1-1.29-1.32"/><path id="path405" class="cls-4" d="M120.17,112.68c-.69.45-1.13,1.06-2.59,0,1.24.63,1.35.14,2.59,0"/><path id="path407" class="cls-4" d="M118.23,110c.25,1.08,1.41,1.39-.65,2h.65a9.78,9.78,0,0,1,0-2"/><path id="path409" class="cls-4" d="M120.17,99.44c-.63-.31-1.12-.23-1.29-1.32v.66c1.12-.31.91.24,1.29.66"/><path id="path411" class="cls-18" d="M119.52,112a1.25,1.25,0,0,0-.65-1.32"/><path id="path413" class="cls-18" d="M119.52,111.36h.65"/><path id="path415" class="cls-18" d="M119.52,112h.65"/><path id="path417" class="cls-18" d="M120.17,112"/><path id="path419" class="cls-18" d="M118.23,109.37h-.65"/><path id="path421" class="cls-18" d="M118.23,109.37h-.65"/><path id="path423" class="cls-18" d="M74.89,128.57c.2-.79.12-1.35-.65-1.32"/><path id="path425" class="cls-18" d="M76.18,127.91c0-.79-.52-.87-1.29-.66"/><path id="path427" class="cls-18" d="M74.24,127.25H73.6"/><path id="path429" class="cls-18" d="M74.24,127.25H73.6"/><path id="path431" class="cls-18" d="M75.54,127.25h-.65"/><path id="path433" class="cls-18" d="M76.18,127.25H74.89"/><path id="path435" class="cls-18" d="M76.18,127.25h-.65"/><path id="path437" class="cls-18" d="M75.54,127.25"/><path id="path439" class="cls-18" d="M84.59,92.16V88.85"/><path id="path441" class="cls-18" d="M94.94,94.15c1.95-1.46,1.67-4.1,3.23-6"/><path id="path443" class="cls-18" d="M113.05,88.85V84.22"/><path id="path445" class="cls-18" d="M116.93,86.87c.77,0,.85-.54.65-1.32"/><path id="path447" class="cls-47" d="M67.77,121.29h0"/><path id="path449" class="cls-47" d="M63.25,122.61h0"/><path id="path451" class="cls-47" d="M62,125.92h0"/></g></g></g></svg>